<?xml version="1.0" standalone="no"?>
<!DOCTYPE svg PUBLIC "-//W3C//DTD SVG 20010904//EN"
 "http://www.w3.org/TR/2001/REC-SVG-20010904/DTD/svg10.dtd">
<svg version="1.0" xmlns="http://www.w3.org/2000/svg"
 width="1056.000000pt" height="1056.000000pt" viewBox="0 0 1056.000000 1056.000000"
 preserveAspectRatio="xMidYMid meet">
<metadata>
Created by potrace 1.11, written by Peter Selinger 2001-2013
</metadata>
<g transform="translate(0.000000,1056.000000) scale(0.100000,-0.100000)"
fill="#000000" stroke="none">
<path d="M9670 10546 c-25 -7 -52 -15 -60 -17 -8 -2 -17 -6 -20 -9 -3 -3 -30
-18 -60 -34 -85 -46 -204 -118 -212 -130 -4 -6 -8 -8 -8 -3 0 4 -8 -1 -18 -10
-10 -10 -30 -27 -44 -38 -46 -36 -150 -128 -215 -191 -35 -34 -63 -60 -63 -58
0 2 -21 -20 -47 -48 -27 -28 -66 -70 -88 -93 -22 -23 -62 -68 -90 -100 -27
-32 -59 -68 -70 -81 -79 -88 -248 -302 -410 -519 -82 -110 -158 -209 -167
-219 -10 -11 -18 -23 -18 -27 0 -4 -6 -14 -13 -21 -7 -7 -42 -56 -79 -108 -37
-52 -71 -99 -76 -105 -4 -5 -54 -76 -111 -158 -90 -127 -106 -145 -120 -135
-9 7 -17 13 -19 14 -2 1 22 60 54 131 8 17 14 34 14 37 0 3 9 25 19 49 46 102
133 313 134 325 0 6 4 12 9 12 4 0 8 5 8 11 0 11 41 107 101 234 18 39 32 73
31 78 -1 4 3 7 9 7 5 0 7 5 4 10 -3 6 -1 10 4 10 6 0 11 6 11 14 0 8 13 40 29
72 29 59 48 100 94 205 14 31 28 76 31 98 3 23 8 46 11 51 3 5 1 11 -5 15 -5
3 -10 17 -10 31 0 32 -24 70 -74 117 -75 72 -189 104 -272 77 -75 -25 -260
-152 -373 -256 -162 -150 -399 -397 -511 -534 -25 -30 -47 -57 -50 -60 -3 -3
-34 -41 -69 -85 -34 -44 -71 -90 -81 -102 -61 -72 -229 -304 -401 -556 -8 -11
-32 -45 -54 -76 -22 -31 -65 -93 -95 -138 -29 -46 -56 -83 -58 -83 -5 0 7 87
23 163 2 12 13 55 24 95 10 39 17 72 14 72 -3 0 0 7 7 15 7 8 9 15 5 15 -4 0
-2 6 4 14 6 8 11 18 10 22 -1 5 1 18 5 29 16 40 19 50 22 60 1 6 21 62 44 125
23 63 51 142 62 175 12 33 25 71 31 85 6 14 11 30 13 37 1 6 22 67 47 135 44
120 69 193 73 213 1 6 8 24 15 40 7 17 13 32 14 35 0 3 23 70 50 150 27 80 50
150 51 155 2 6 6 21 9 35 9 33 9 47 1 99 -17 103 -73 172 -144 179 -45 5 -148
-16 -182 -36 -23 -14 -150 -140 -175 -173 -24 -32 -73 -116 -86 -146 -8 -18
-17 -33 -21 -33 -5 0 -8 -6 -8 -14 0 -12 -31 -85 -93 -216 -11 -25 -22 -49
-23 -55 -1 -5 -23 -57 -49 -115 -26 -58 -53 -121 -62 -140 -8 -19 -21 -49 -29
-66 -9 -17 -16 -37 -18 -45 -1 -8 -8 -25 -14 -39 -47 -101 -236 -629 -257
-713 -9 -38 -18 -64 -52 -157 -19 -52 -44 -120 -55 -150 -11 -30 -27 -71 -36
-90 -9 -19 -17 -37 -17 -40 0 -3 -11 -27 -23 -54 -12 -27 -22 -50 -22 -52 0
-14 -171 -367 -192 -396 -11 -16 -16 -28 -12 -28 4 0 1 -8 -7 -17 -8 -10 -28
-43 -44 -73 -86 -165 -378 -638 -453 -735 -4 -5 -22 -32 -39 -60 -18 -27 -36
-54 -41 -60 -4 -5 -38 -55 -75 -110 -38 -55 -113 -165 -168 -245 -55 -80 -121
-175 -146 -212 -47 -70 -58 -81 -49 -50 3 9 8 31 11 47 3 17 7 35 9 40 8 31
29 132 29 143 0 6 3 12 7 12 3 0 6 8 6 18 2 24 11 73 35 172 11 47 23 96 25
110 3 14 9 39 14 55 5 17 11 47 15 69 3 21 7 42 10 46 2 3 7 22 10 41 3 19 8
42 11 51 3 9 7 25 9 35 2 10 9 41 15 68 6 28 13 61 15 75 3 14 9 45 16 70 6
25 13 55 15 68 8 46 13 69 33 157 11 50 23 105 26 124 3 19 7 37 9 40 2 3 7
22 10 41 3 19 12 64 20 100 8 36 17 76 20 90 3 14 7 34 9 45 3 11 12 54 21 95
8 41 23 109 32 150 9 41 18 86 20 100 3 14 9 40 14 59 5 19 7 37 5 39 -2 3 0
13 5 23 6 10 12 35 15 56 6 42 12 77 15 81 3 3 5 10 15 67 4 28 9 55 11 60 1
6 17 75 34 155 17 80 33 154 36 165 2 11 6 32 9 47 3 15 9 37 14 50 4 13 7 32
5 42 -1 11 1 27 6 35 4 9 10 30 13 46 3 17 13 66 22 110 10 44 19 89 20 100 2
11 9 43 15 70 17 71 20 85 26 125 3 19 8 38 10 41 2 3 6 21 9 40 3 19 11 54
16 79 6 25 13 59 16 75 2 17 8 47 13 68 11 51 10 182 -1 237 -5 25 -11 52 -12
60 -4 27 -60 140 -68 140 -5 0 -9 5 -9 10 0 11 -43 63 -73 89 -10 9 -31 26
-45 39 -26 22 -182 105 -182 97 0 -2 -15 1 -32 6 -59 18 -72 20 -153 23 -71 3
-114 -1 -205 -19 -14 -3 -33 -6 -42 -8 -10 -2 -21 -6 -24 -10 -4 -4 -16 -7
-26 -7 -10 0 -26 -4 -36 -9 -9 -5 -44 -20 -77 -33 -33 -13 -62 -26 -63 -30 -2
-5 -11 -8 -20 -8 -9 0 -28 -9 -42 -20 -14 -11 -29 -20 -33 -20 -11 0 -225
-142 -258 -172 -15 -13 -49 -42 -75 -64 -223 -190 -457 -443 -629 -679 -32
-44 -61 -82 -65 -85 -3 -3 -21 -30 -40 -60 -19 -30 -40 -61 -47 -68 -6 -6 -15
-21 -18 -32 -3 -11 -11 -20 -16 -20 -5 0 -9 -7 -9 -15 0 -8 -3 -15 -7 -15 -5
0 -13 -10 -19 -23 -17 -34 -148 -261 -154 -267 -9 -8 -124 -244 -126 -259 -2
-8 -6 -17 -11 -20 -7 -5 -46 -79 -47 -91 -1 -3 -10 -23 -21 -45 -10 -22 -20
-44 -21 -50 -1 -5 -19 -46 -39 -90 -33 -72 -55 -121 -60 -135 -1 -3 -7 -18
-13 -33 -7 -16 -12 -31 -12 -33 0 -3 -8 -24 -19 -47 -21 -47 -102 -264 -106
-287 -2 -8 -4 -16 -5 -17 -2 -2 -3 -6 -5 -10 -1 -5 -5 -16 -8 -25 -4 -10 -10
-26 -14 -35 -8 -22 -7 -21 -17 -63 -5 -19 -13 -41 -18 -47 -6 -7 -8 -13 -5
-13 3 0 -4 -28 -14 -62 -11 -35 -22 -70 -23 -78 -2 -8 -11 -40 -20 -70 -8 -30
-17 -66 -20 -80 -2 -14 -9 -45 -15 -70 -12 -47 -18 -74 -25 -112 -2 -13 -7
-36 -11 -53 -7 -32 -9 -45 -20 -115 -4 -24 -8 -47 -10 -50 -2 -3 -6 -30 -9
-60 -4 -30 -9 -66 -11 -80 -5 -27 -10 -66 -22 -180 -12 -118 -9 -368 6 -440
20 -96 51 -202 67 -227 8 -13 12 -23 9 -23 -2 0 4 -16 15 -35 11 -19 29 -52
41 -72 56 -101 188 -234 282 -284 34 -19 67 -34 72 -35 6 0 17 -4 25 -7 31
-14 108 -24 156 -21 107 7 153 19 244 62 199 93 366 236 605 517 28 32 59 69
70 82 11 13 31 37 45 54 14 17 30 37 36 43 6 6 46 54 89 106 120 144 125 146
94 45 -24 -80 -87 -314 -93 -345 -2 -14 -5 -26 -7 -27 -1 -2 -3 -7 -4 -13 -1
-5 -4 -13 -5 -17 -1 -5 -2 -11 -1 -15 0 -4 -4 -20 -11 -35 -6 -15 -12 -34 -14
-41 -6 -31 -56 -218 -61 -232 -3 -8 -8 -24 -10 -35 -2 -11 -13 -53 -24 -93
-11 -40 -22 -82 -24 -93 -2 -10 -6 -23 -9 -27 -3 -5 -7 -20 -10 -35 -4 -15 -8
-39 -11 -53 -9 -43 -32 -79 -59 -94 -14 -7 -26 -17 -26 -22 0 -4 -4 -8 -10 -8
-12 0 -183 -121 -226 -160 -19 -17 -34 -27 -34 -23 0 4 -6 0 -12 -9 -7 -8 -47
-41 -88 -73 -41 -33 -77 -61 -80 -65 -3 -3 -23 -19 -45 -35 -42 -31 -78 -61
-101 -82 -7 -7 -17 -13 -22 -13 -6 0 -12 -4 -14 -8 -1 -4 -48 -43 -103 -87
-55 -43 -116 -92 -135 -109 -20 -17 -58 -50 -85 -73 -55 -46 -75 -63 -154
-131 -30 -26 -63 -55 -74 -64 -191 -166 -617 -593 -617 -618 0 -6 -6 -10 -14
-10 -8 0 -17 -8 -20 -17 -4 -10 -23 -36 -44 -58 -20 -23 -57 -68 -82 -100 -56
-74 -72 -94 -87 -110 -7 -8 -13 -16 -13 -20 0 -4 -6 -13 -12 -20 -23 -26 -33
-40 -63 -87 -17 -27 -33 -48 -37 -48 -5 0 -8 -5 -8 -12 0 -6 -11 -26 -25 -44
-14 -18 -25 -37 -25 -42 0 -6 -4 -12 -8 -14 -15 -6 -186 -316 -225 -408 -8
-19 -29 -69 -47 -110 -27 -62 -50 -126 -55 -150 0 -3 -6 -15 -13 -27 -7 -13
-10 -23 -7 -23 3 0 -2 -17 -10 -37 -9 -21 -16 -40 -15 -43 1 -7 -20 -102 -27
-120 -4 -8 -6 -18 -5 -22 1 -6 -10 -75 -23 -143 -11 -51 -14 -366 -5 -435 22
-162 34 -225 56 -288 9 -26 17 -51 18 -57 1 -5 12 -30 24 -54 12 -25 22 -50
22 -57 0 -7 3 -14 8 -16 4 -2 25 -30 47 -63 90 -138 209 -232 375 -297 14 -5
36 -12 50 -15 14 -2 45 -9 70 -14 103 -23 268 -9 405 34 39 12 73 25 76 30 3
4 10 7 15 6 9 -2 139 59 179 84 104 64 160 111 284 237 155 156 282 302 340
390 20 30 39 57 44 58 4 2 7 7 7 12 0 4 25 51 55 105 30 53 55 100 55 105 0 5
3 10 8 12 4 2 20 28 35 58 71 139 103 195 110 198 4 2 7 10 7 18 0 8 11 32 25
54 14 22 22 40 18 40 -5 0 -3 4 2 8 22 15 224 459 270 592 1 3 4 12 8 20 27
67 134 400 129 404 -3 3 1 6 8 6 7 0 11 2 8 6 -3 3 18 76 47 163 51 153 68
213 65 227 -1 4 3 10 8 13 6 4 12 18 14 31 2 14 6 30 10 35 3 6 16 44 28 85
12 41 32 107 45 145 19 55 86 280 99 330 2 6 6 17 9 25 3 8 10 31 15 50 6 19
30 103 55 185 67 226 100 339 100 353 0 6 4 12 9 12 4 0 7 3 7 8 -6 36 27 102
80 159 12 12 21 27 21 33 0 5 5 10 10 10 6 0 10 6 10 14 0 8 3 16 8 18 4 2 36
43 72 91 36 48 76 103 90 121 14 19 33 45 42 58 9 12 41 55 70 94 29 40 60 82
68 94 8 12 23 31 32 43 80 105 118 157 118 162 0 3 9 16 20 28 33 37 180 238
180 247 0 5 3 10 8 12 6 3 86 107 144 189 10 13 36 49 58 79 23 30 49 66 58
78 78 107 156 208 164 211 6 2 8 -2 3 -8 -4 -7 -9 -52 -11 -99 -5 -113 -10
-208 -19 -362 -21 -341 -12 -444 46 -532 41 -63 136 -111 227 -117 149 -8 256
93 340 319 11 30 23 64 28 75 4 11 8 29 10 40 3 23 11 58 18 83 3 9 7 28 10
42 2 14 16 79 30 145 22 100 42 181 111 448 3 9 7 25 9 35 2 9 11 37 19 62 8
25 34 104 57 175 23 72 46 135 51 141 5 6 6 14 2 17 -3 4 -1 12 4 19 5 7 17
36 26 63 9 28 26 73 38 100 13 28 24 56 25 63 1 6 12 33 25 59 12 25 22 52 22
60 0 7 4 13 9 13 4 0 8 5 8 12 0 6 12 36 26 67 77 161 148 304 183 366 22 39
43 77 47 85 4 8 39 68 78 134 39 65 75 127 81 137 5 11 13 19 17 19 5 0 8 5 8
10 0 9 35 65 50 80 3 3 30 41 60 85 30 44 59 85 65 91 5 6 17 21 25 34 45 65
223 295 231 298 9 4 12 -14 12 -68 0 -25 -12 -71 -98 -380 -25 -91 -48 -174
-50 -185 -2 -11 -6 -29 -9 -40 -3 -11 -13 -45 -21 -75 -9 -30 -18 -62 -20 -70
-2 -8 -17 -67 -34 -130 -17 -63 -32 -126 -35 -140 -2 -14 -5 -25 -6 -25 -1 0
-3 -7 -5 -15 -2 -8 -9 -35 -16 -60 -6 -25 -12 -51 -12 -57 0 -7 -4 -13 -9 -13
-5 0 -7 -4 -4 -8 3 -5 1 -24 -4 -43 -5 -19 -11 -45 -14 -59 -2 -14 -12 -52
-20 -85 -9 -33 -19 -71 -21 -85 -6 -29 -13 -60 -21 -92 -3 -13 -7 -36 -9 -53
-1 -16 -4 -30 -5 -30 -2 0 -6 -25 -14 -90 -4 -27 -8 -63 -11 -80 -16 -121 -32
-342 -39 -541 -4 -122 -3 -135 19 -177 47 -93 120 -134 235 -132 131 3 211 68
294 240 45 94 77 170 79 188 1 9 5 17 10 17 4 0 6 3 4 8 -3 4 0 18 6 32 5 14
11 30 13 37 2 13 61 197 71 223 23 61 64 178 68 194 2 10 9 23 14 30 5 6 9 13
10 16 0 22 88 243 158 400 9 19 17 40 18 45 2 6 31 69 66 140 34 72 63 132 64
135 3 18 31 70 37 70 5 0 8 6 8 13 0 12 12 37 75 152 18 33 54 101 81 150 26
50 51 92 56 93 4 2 8 8 8 12 0 20 342 565 370 590 3 3 46 61 95 130 100 141
273 360 285 360 13 0 -97 -295 -128 -345 -4 -5 -7 -14 -8 -20 -1 -5 -22 -62
-47 -125 -24 -63 -54 -146 -67 -185 -12 -38 -24 -77 -27 -85 -7 -16 -11 -30
-17 -57 -3 -10 -5 -18 -6 -18 -2 0 -5 -13 -14 -51 -2 -12 -16 -68 -29 -125
-14 -57 -31 -138 -37 -179 -6 -41 -13 -86 -15 -100 -18 -113 -24 -420 -11
-549 13 -130 47 -315 80 -426 1 -5 8 -30 15 -54 7 -24 16 -51 21 -60 4 -9 22
-52 41 -96 18 -44 45 -99 61 -122 15 -23 28 -46 28 -52 0 -5 6 -16 13 -23 7
-7 21 -26 31 -43 38 -60 234 -264 254 -265 6 0 12 -4 12 -8 0 -5 12 -15 28
-22 15 -8 39 -22 53 -32 36 -24 171 -77 206 -81 16 -2 34 -7 41 -11 7 -4 12
-4 12 1 0 4 21 8 48 9 88 2 193 80 247 184 90 173 52 303 -125 430 -57 41
-157 139 -203 199 -23 31 -44 58 -48 61 -9 9 -96 193 -104 223 -2 4 -3 8 -5
10 -1 1 -3 9 -5 17 -2 8 -11 45 -19 82 -28 118 -37 306 -22 473 7 87 14 134
31 235 15 88 45 221 53 235 7 10 7 13 17 58 3 15 19 67 36 115 17 48 33 96 35
107 3 11 8 27 12 35 3 8 6 17 7 20 1 3 4 12 7 20 4 8 9 24 14 35 4 11 6 23 6
28 -1 4 3 7 9 7 5 0 8 4 4 9 -3 5 0 15 7 23 7 7 14 19 16 27 6 27 67 166 74
169 4 2 8 9 8 15 0 16 122 261 135 269 5 4 7 8 2 8 -4 0 4 18 18 40 14 23 30
51 35 63 6 12 23 45 40 72 16 28 35 62 42 78 7 15 16 27 20 27 4 0 8 4 8 9 0
8 52 98 120 206 8 14 44 72 80 130 36 59 75 123 88 143 12 20 27 46 32 57 6
11 19 34 30 50 41 65 149 283 169 343 27 84 23 182 -10 243 -73 134 -239 207
-379 165z m-5481 -1235 c30 -22 62 -75 68 -115 9 -57 2 -174 -13 -251 -2 -11
-7 -33 -10 -50 -3 -16 -12 -57 -21 -90 -8 -33 -16 -64 -17 -70 -2 -5 -8 -30
-15 -55 -7 -25 -13 -47 -13 -50 0 -3 -4 -13 -10 -23 -5 -10 -12 -28 -14 -40
-3 -12 -6 -26 -8 -32 -7 -29 -193 -601 -203 -625 -3 -8 -7 -17 -8 -20 -5 -21
-28 -89 -35 -105 -5 -11 -33 -85 -61 -165 -28 -80 -56 -149 -60 -154 -5 -6 -9
-16 -9 -23 0 -7 -11 -36 -25 -65 -14 -28 -25 -56 -25 -61 0 -9 -7 -27 -52
-127 -14 -30 -38 -84 -54 -120 -15 -36 -33 -68 -39 -72 -5 -4 -6 -8 -2 -8 4 0
-20 -55 -55 -122 -34 -68 -62 -126 -60 -130 1 -5 -2 -8 -7 -8 -5 0 -13 -10
-17 -22 -3 -13 -12 -30 -19 -38 -8 -8 -15 -19 -16 -25 -8 -36 -12 -45 -20 -45
-5 0 -9 -4 -9 -10 0 -5 -18 -39 -40 -75 -22 -36 -40 -67 -40 -70 0 -22 -237
-347 -312 -429 -10 -11 -18 -23 -18 -28 0 -4 -7 -8 -15 -8 -8 0 -15 -7 -15
-15 0 -8 -3 -15 -7 -15 -5 0 -30 -21 -56 -45 -96 -89 -176 -112 -297 -83 -28
7 -110 69 -110 83 0 8 -4 15 -8 15 -13 0 -41 92 -49 160 -4 40 -3 202 2 235 2
17 7 55 10 85 3 30 7 65 9 77 3 11 8 43 12 70 3 26 8 57 10 68 2 11 7 34 10
50 15 84 67 301 75 311 5 6 7 13 4 16 -6 6 66 236 116 368 22 58 41 112 43
120 6 25 108 254 118 268 6 6 8 12 5 12 -3 0 25 60 61 133 36 72 65 135 64
140 -1 4 3 7 9 7 5 0 8 4 5 9 -4 5 -3 11 1 13 5 1 16 19 25 38 57 116 176 323
190 328 4 2 8 8 8 13 0 8 41 75 63 104 4 6 22 33 40 60 17 28 37 56 44 63 7 7
13 16 13 20 0 4 14 22 30 41 17 18 30 37 30 41 0 4 10 18 23 32 12 13 40 46
62 74 72 89 70 87 194 218 54 57 162 147 211 175 137 79 237 93 309 42z
m-1182 -5253 c-2 -13 -7 -30 -10 -38 -3 -8 -22 -73 -42 -145 -20 -71 -38 -137
-42 -145 -3 -8 -7 -22 -9 -30 -4 -21 -93 -321 -101 -340 -3 -8 -8 -24 -10 -35
-2 -11 -6 -27 -10 -35 -3 -8 -7 -20 -8 -26 -2 -9 -81 -254 -110 -342 -3 -7 -5
-16 -6 -20 0 -4 -5 -13 -11 -20 -6 -7 -8 -15 -5 -19 3 -3 -1 -20 -10 -37 -9
-17 -18 -38 -20 -46 -2 -16 -95 -267 -112 -305 -8 -17 -20 -48 -26 -65 -5 -15
-23 -58 -76 -182 -33 -76 -59 -142 -59 -148 0 -5 -5 -10 -12 -10 -6 0 -9 -3
-6 -6 6 -5 -15 -50 -131 -284 -77 -154 -188 -340 -203 -340 -5 0 -8 -7 -8 -15
0 -8 -4 -15 -10 -15 -5 0 -10 -7 -10 -17 0 -9 -3 -13 -7 -9 -4 3 -12 -2 -18
-13 -22 -43 -219 -250 -271 -287 -66 -46 -107 -59 -189 -59 -63 1 -90 5 -127
24 -53 26 -128 90 -128 109 0 6 -4 12 -9 12 -22 0 -42 100 -41 201 0 83 44
345 67 399 3 8 7 21 9 29 6 29 58 186 63 191 4 3 8 14 9 25 2 11 7 22 10 25 4
3 8 12 10 20 6 28 180 390 193 400 3 3 17 25 30 50 30 56 46 80 128 203 36 54
71 105 76 114 10 16 26 38 55 73 8 10 22 28 30 40 84 126 372 437 588 638 55
52 141 133 190 180 49 48 101 96 116 106 15 11 37 29 49 40 13 12 38 32 56 46
18 14 38 30 44 35 7 6 34 29 61 53 27 23 51 42 53 42 2 0 2 -10 0 -22z"/>
<path d="M8135 5082 c-2 -2 -27 -5 -57 -7 -74 -6 -167 -16 -203 -21 -16 -3
-48 -7 -70 -10 -58 -7 -90 -12 -90 -14 0 -1 -13 -3 -30 -5 -52 -6 -92 -14
-137 -26 -24 -6 -56 -13 -73 -16 -16 -3 -73 -16 -125 -30 -52 -13 -102 -26
-110 -28 -8 -2 -15 -4 -15 -5 0 -1 -8 -3 -17 -6 -10 -2 -26 -6 -35 -8 -10 -3
-18 -5 -18 -6 0 -1 -10 -3 -21 -5 -12 -3 -97 -30 -190 -61 -151 -50 -217 -74
-294 -107 -14 -5 -32 -12 -42 -13 -34 -7 -466 -194 -540 -234 -20 -11 -44 -20
-52 -20 -9 0 -16 -4 -16 -10 0 -5 -5 -10 -11 -10 -14 0 -209 -95 -261 -127
-21 -13 -38 -21 -38 -19 0 3 -32 -13 -71 -35 -40 -21 -75 -39 -79 -39 -4 0
-13 -7 -20 -15 -7 -8 -21 -15 -31 -15 -11 0 -19 -3 -19 -7 0 -5 -44 -30 -98
-58 -53 -27 -99 -53 -102 -56 -3 -4 -25 -17 -50 -29 -25 -12 -47 -25 -50 -29
-3 -3 -30 -19 -60 -35 -30 -16 -57 -32 -60 -35 -5 -6 -36 -24 -100 -58 -19
-10 -37 -21 -40 -24 -3 -3 -36 -24 -75 -47 -38 -23 -113 -69 -165 -102 -52
-32 -118 -73 -145 -89 -28 -17 -62 -39 -75 -51 -12 -11 -29 -20 -37 -20 -7 0
-13 -4 -13 -10 0 -5 -4 -10 -10 -10 -8 0 -96 -56 -110 -70 -7 -7 -43 -29 -60
-37 -28 -13 -28 -27 1 -69 16 -23 29 -45 29 -49 0 -3 9 -15 20 -27 11 -12 20
-28 20 -35 0 -7 5 -13 10 -13 6 0 10 -7 10 -15 0 -8 5 -15 10 -15 6 0 10 -5
10 -10 0 -6 27 -51 61 -101 l61 -90 26 17 c104 68 138 90 147 96 29 22 118 78
124 78 3 0 19 11 35 25 16 14 35 25 43 25 7 0 13 3 13 8 0 4 17 16 38 27 20
11 42 23 47 28 34 26 102 67 112 67 6 0 13 4 15 8 3 8 128 85 223 137 28 16
61 36 74 47 13 10 28 18 33 18 5 0 33 15 61 33 29 18 61 37 72 43 69 37 122
67 133 76 6 6 12 7 12 3 0 -4 7 -2 15 5 22 18 94 56 285 152 91 46 167 86 170
89 5 6 38 20 55 24 6 2 61 28 123 58 62 31 115 56 117 56 3 0 27 10 53 22 26
11 63 27 82 34 19 7 58 23 85 36 28 13 52 23 55 24 5 1 115 42 175 66 17 7 35
13 40 15 6 1 68 23 139 48 71 25 133 43 137 40 5 -3 9 0 9 5 0 6 3 10 8 9 4 0
14 2 22 5 29 11 120 36 120 32 0 -2 16 3 35 11 19 8 35 12 35 9 0 -3 8 -1 19
4 10 6 33 13 52 16 19 3 81 17 139 30 58 13 125 27 150 30 67 9 103 15 120 20
8 2 49 7 90 10 41 4 98 9 125 11 78 7 315 10 315 4 0 -3 23 -5 52 -5 47 1 78
-2 218 -21 24 -3 48 -8 52 -10 3 -2 10 17 14 43 5 27 9 50 9 53 1 3 5 25 9 50
5 25 10 54 12 65 3 11 7 36 10 55 3 19 7 46 10 60 3 14 7 36 9 50 2 14 6 39 9
57 7 34 -10 51 -50 52 -32 1 -88 8 -114 15 -14 3 -54 8 -90 11 -75 6 -440 12
-445 7z"/>
</g>
</svg>
