<svg height="33" viewBox="0 0 30 33" width="30" xmlns="http://www.w3.org/2000/svg"><g fill="none" fill-rule="evenodd" transform=""><path d="m5.3805631 27.377231c-.3374893.6702659-.5770692 1.1541384-1.48989648 2.0794689-.33191097.3365275-.81030133.4983954-1.27551528.2190939-.45655791-.2738193-.50464701-.6635334-.45184518-1.2241561.13955457-.9782285.37471027-1.631567.7230677-2.3730047.8130905-1.730342 2.01868422-3.1844602 3.44414131-4.4562245.17677553-.1577322.33806637-.3327766.50676293-.4994534.05280183-.0521286.63871942-.5297495 1.0922958-.90244-.02365983.0829056-.04616553.1660997-.07001773.2490053-.70392823 2.4451384-1.33091391 4.6277102-2.47899307 6.9077106m3.18599901-14.2231206c-.28035945.4434777-.61159716.8635841-.9718807 1.2447383-.29661356.3138294-.67613273.5932271-1.15134922.3832701-.45742351-.2019742-.45290313-.6539156-.48166042-1.0709442-.00442419-.0637662-.00067324-.1281094-.00067324-.1921641.12724375-1.6800408.60861564-3.2657307 1.30860057-4.78678894.71258428-1.54866136 1.56222249-3.01470565 2.7727213-4.23732291.2215946-.22380667.4867579-.42404968.7667326-.5664896.6277551-.31950397 1.0680589-.03741331 1.0128526.65939774-.035105.44222736-.1345533.88743624-.265548 1.31273623-.7730804 2.50938539-1.57251355 5.01136508-2.98979549 7.25356738m21.14631589-12.85440861c-.3832701-.3644192-.8466567-.37509498-1.29427-.14715265-.3675931.18716278-.732397.40135163-1.049208.66324486-1.4209367 1.17404728-2.5014026 2.6509597-3.5896589 4.11758106-.417221.56225775-.8124173 1.14086579-1.2174236 1.71206812-.0425108-.02048596-.0848292-.04087574-.1272438-.0613617.2919008-.70123524.5743762-1.40670233.8787802-2.10264778.2561225-.5854367.5566794-1.15192629.8008759-1.74197954.136573-.3299874.0903113-.66257161-.2178437-.91167315-.3185422-.25766139-.6735359-.32719823-1.0254519-.11695269-.3273906.19562646-.6439131.42279936-.9257152.6794028-1.4787398 1.34716803-2.6701953 2.93353125-3.7747058 4.59020072-.1320526.19812709-.268241.39356119-.4025057.59014943.0655935-.55215904.2013971-1.060557.3732676-1.55664415.4288586-1.23867902.9001317-2.46341221 1.2889802-3.71411351.072326-.23246271-.0819438-.69113654-.2746849-.80693509-.1963959-.11801065-.6484335-.0370286-.84733.12753229-.3215237.26593272-.6000558.63968121-.7690409 1.02400929-.5593724 1.27243757-1.1603899 2.53997005-1.5640498 3.86453621-.7324932 2.40349319-1.6505141 4.13325809-3.3402689 6.59484289l-1.3365884 1.9480895c.9042674-3.8361637 1.6659026-7.70704766 2.4974593-11.56090809.34653-1.60607975-1.0607494-2.56035984-2.4145537-2.23277689-.8610834.20832198-1.58934474.67199707-2.24614566 1.24800831-1.39102529 1.22011663-2.46754787 2.68568002-3.29554599 4.33273168-1.11518621 2.2181578-1.94029898 4.53076259-2.13188596 7.02745249-.07251836.9455278.06847888 1.8559507.71239192 2.6197979.62612008.7426881 1.41506985.9342751 2.2742297.4778133.40404461-.2145735.80029879-.4897394 1.11355118-.8196306.62496594-.6583398 1.19020522-1.3733285 1.77977758-2.0645612-.01231081.0605923-.02356366.1363807-.04347255.2098608-.32488996 1.1978995-.64295126 2.3977225-.9674565 3.5958144l-.79212365.5471577c-.41904841.3666313-1.54327538 1.2140574-1.97059512 1.5712633-1.65070643 1.3800609-3.24764924 2.8116734-4.40650036 4.6577178-1.00390804 1.5994434-1.65061025 3.2852549-1.32139228 5.2248806.33008358 1.9441462 1.97530785 2.8312939 3.75787459 1.9940626.35797526-.1681194.72672247-.3743255.99823353-.6529538.55590999-.570529 1.162025-1.1390384 1.54423716-1.8219998.73153138-1.307254 1.47056466-2.6443234 1.93885631-4.0577582.69633017-2.1015898 1.36486483-4.2172216 1.9623238-6.3503579l-.0024045.0122146 3.8765585-5.2609475c-.0343356.3021919-.0216401.326525-.0294305.5482158-.0218324.6225615-.1097393 1.442673-.0878107 2.0642727.0159656.4542496.2705493.8061656.730762.9006126.435591.0895419.8016453-.1136826 1.0038118-.4998381.167831-.3203696.3072894-.6719971.375095-1.0259328.5052241-2.6374948 1.3878514-5.1247592 2.8943867-7.36503798.3895217-.57899276.8275172-1.12547728 1.2431032-1.68686943.0660745.17667935.0354898.29565178.0042319.41443186-.40693 1.54587219-.8610834 3.08145335-1.2026122 4.64165605-.1931258.8817617-.228808 1.8024756-.2786283 2.7087628-.0196203.3534549.1469603.7108531.5586992.8026071.4173172.0931005.782602-.0689598.9980412-.4207796.205629-.335662.3691319-.7093143.4833916-1.0868137.8908025-2.9435338 2.2799042-5.6292138 4.1365282-8.07617954.1828347-.24102257.3848089-.46742605.5779348-.700562-.1040649.41827899-.2815136.77567717-.4356873 1.14288554-.8116478 1.9331818-1.2114606 3.911375-.6269857 5.9912285.2448697.8709898.6938296 1.6247384 1.3909291 2.1984413.2728576.2246723.6221768.3991395.9647636.4860846.4983954.1265705.9307164-.1520577 1.1606785-.6373729.208899-.4411694.140901-.8699318-.3100785-1.1804912-.973612-.6704582-1.3999699-1.6174288-1.4180514-2.7440602-.0100987-.63208312.0734801-1.28224775.2244799-1.89740351.4995496-2.03426508 1.5611645-3.80836814 2.6650979-5.55967697.2548722-.40442932.4897394-.82665162.6840193-1.26281975.1844698-.4142395.2091876-.85723629-.156001-1.20443958" fill="#000"/><path d="m12 23c6-4 10.6666667-5.6666667 14-5" stroke="#000" stroke-width="1.5"/></g></svg>